<svg width="89" height="89" viewBox="0 0 89 89" fill="none" xmlns="http://www.w3.org/2000/svg">
<g clip-path="url(#clip0_531_4342)">
<path d="M44.5 19.4688C36.052 19.4688 29.2031 26.3176 29.2031 34.7656C29.2031 43.2137 36.052 50.0625 44.5 50.0625C52.948 50.0625 59.7969 43.2137 59.7969 34.7656C59.7969 26.3176 52.948 19.4688 44.5 19.4688ZM44.5 41.7188C40.6654 41.7188 37.5469 38.5985 37.5469 34.7656C37.5469 30.924 40.6584 27.8125 44.5 27.8125C48.3416 27.8125 51.4531 30.931 51.4531 34.7656C51.4531 38.6072 48.3416 41.7188 44.5 41.7188ZM44.5 0C19.9207 0 0 19.9207 0 44.5C0 69.0793 19.9207 89 44.5 89C69.0793 89 89 69.0793 89 44.5C89 19.9207 69.0793 0 44.5 0ZM44.5 80.6562C36.377 80.6562 28.8972 77.9306 22.8584 73.392C25.8656 67.6191 31.7062 63.9688 38.277 63.9688H50.7387C57.3007 63.9688 63.1344 67.6209 66.1538 73.392C60.1098 77.9271 52.6178 80.6562 44.5 80.6562ZM72.3473 67.5322C67.6539 60.1967 59.6578 55.625 50.723 55.625H38.277C29.3491 55.625 21.3548 60.188 16.6527 67.5288C11.4657 61.2744 8.34375 53.2436 8.34375 44.5C8.34375 24.5619 24.5637 8.34375 44.5 8.34375C64.4363 8.34375 80.6562 24.5637 80.6562 44.5C80.6562 53.2436 77.5273 61.2744 72.3473 67.5322Z" fill="white"/>
</g>
<defs>
<clipPath id="clip0_531_4342">
<rect width="89" height="89" fill="white"/>
</clipPath>
</defs>
</svg>
