<svg width="211" height="63" viewBox="0 0 211 63" fill="none" xmlns="http://www.w3.org/2000/svg">
<g clip-path="url(#clip0_301_322)">
<path d="M31.4342 -0.00138419C48.3822 -0.392881 63.0251 13.8271 62.5321 31.9719C62.1024 47.7247 49.0717 62.9831 29.4923 62.0044C13.4303 61.1981 -0.0833796 48.4015 -0.000105457 30.6017C0.0798377 13.9332 13.6569 -0.389563 31.4342 -0.00138419ZM18.2502 53.4146C19.0763 53.6635 19.999 53.3018 20.8451 53.0397C24.0894 52.0444 26.7276 50.2827 27.4704 46.6696C27.7002 45.5615 27.7868 44.4235 27.9833 43.3087C28.7261 39.125 29.4956 34.9446 30.2384 30.7609C31.0112 26.418 31.694 22.0584 32.5467 17.7321C33.2129 14.4143 31.9905 11.3786 29.2424 10.3235C26.0347 9.09261 22.8603 9.35803 19.8491 10.9871C18.8563 11.4951 17.9902 12.218 17.3141 13.1026C16.6381 13.9872 16.1692 15.0113 15.9419 16.0997C15.5388 17.9378 15.2557 19.8024 14.9426 21.657C13.6102 29.3973 12.2279 37.1344 10.9887 44.8814C10.7922 46.1255 10.2859 47.3896 10.7223 48.7432C11.615 51.5202 14.4962 53.4545 18.2502 53.4146ZM43.4224 8.62481C38.7324 8.21009 35.2848 12.344 35.2215 16.5277C35.1582 20.582 39.0222 24.6894 43.2158 24.6795C47.8192 24.6795 51.5699 21.1029 51.5999 16.6803C51.6299 12.2578 47.9158 8.04088 43.4224 8.62481Z" fill="white"/>
<path d="M126.214 20.5703C126.234 22.6008 125.661 24.3791 125.521 26.2106C125.444 27.2059 125.144 27.6206 124.135 27.5377C123.419 27.4879 122.696 27.5377 121.973 27.5377C119.795 27.5377 118.722 28.6325 118.469 30.7393C118.159 33.3603 117.706 35.9681 117.253 38.5692C117.097 39.465 117.157 39.9395 118.226 40.2016C120.088 40.6561 121.937 40.5566 123.772 40.3243C126.07 40.0357 125.86 38.0019 126.134 36.4525C126.943 31.8375 127.633 27.1992 128.412 22.5776C129.032 18.9115 129.554 15.2188 130.117 11.5394C130.221 10.8559 130.337 10.5905 131.067 10.6104C132.786 10.6546 134.504 10.6546 136.223 10.6104C136.956 10.5938 137.242 10.8393 137.142 11.5527C136.906 13.2679 136.713 14.9865 136.436 16.6952C135.92 19.94 135.357 23.1781 134.811 26.4196C134.145 30.2947 133.438 34.1632 132.892 38.055C132.719 39.2892 132.672 40.5632 132.333 41.7477C131.277 45.447 128.355 47.2817 124.555 47.421C121.617 47.5272 118.672 47.5073 115.734 47.421C110.331 47.2784 109.356 44.2061 109.928 39.9826C110.471 35.9781 111.218 32.02 111.824 28.0088C112.46 23.8218 114.822 20.5405 119.818 20.567C121.987 20.5703 124.158 20.5703 126.214 20.5703Z" fill="white"/>
<path d="M100.632 28.6256C100.095 27.8692 99.5093 27.5374 98.7598 27.5374C97.5939 27.5374 96.4281 27.4777 95.2656 27.5374C93.4302 27.6469 92.4743 28.4498 92.2111 30.1916C91.7848 33.025 91.4417 35.8716 91.1086 38.7183C91.0286 39.4217 91.012 40.0686 92.1345 40.1914C92.822 40.3144 93.516 40.3985 94.213 40.4435C97.7083 40.4435 101.201 40.4435 104.692 40.4435C105.295 40.4435 105.998 40.3009 105.838 41.3028C105.562 43.0048 105.282 44.7069 105.015 46.4089C104.899 47.1587 104.552 47.4407 103.726 47.4307C98.7931 47.3843 93.8466 47.6 88.9268 47.3544C84.4266 47.1288 82.9044 44.4016 83.5972 39.9525C84.2001 36.1238 84.9896 32.3216 85.4826 28.4797C86.1254 23.503 88.3905 20.4872 94.1631 20.5402C96.9344 20.5635 99.7058 20.5402 102.49 20.5402C107.487 20.5402 108.669 23.6689 108.086 27.6635C107.95 28.6157 107.464 29.5778 107.554 30.4969C107.737 32.3415 106.731 32.8359 105.222 33.307C101.798 34.3886 98.4234 35.6294 95.0391 36.8437C94.6827 36.9698 94.3396 37.3082 93.9998 37.0096C93.6601 36.711 93.9998 36.3461 94.0698 35.9778C94.3196 34.8265 94.676 33.6554 94.736 32.5141C94.8492 30.7457 95.6387 30.0622 97.2642 29.7703C98.3801 29.6044 99.4093 29.0702 100.632 28.6256Z" fill="white"/>
<path d="M211.003 20.57C210.67 22.6469 210.274 24.4982 210.114 26.3661C210.037 27.2852 209.844 27.5738 208.901 27.5572C205.74 27.5008 202.573 27.534 199.415 27.5373C198.971 27.4944 198.523 27.5055 198.082 27.5705C197.126 27.8094 196.03 28.171 196.134 29.3455C196.237 30.52 197.363 30.5233 198.316 30.52C199.758 30.52 201.213 30.6394 202.646 30.4968C207.233 30.0455 208.975 33.5989 208.368 37.5404C208.225 38.4926 207.889 39.4182 207.752 40.3704C207.086 44.9589 204.258 47.434 199.591 47.434C195.594 47.434 191.597 47.434 187.6 47.434C186.601 47.434 185.758 47.6363 186.347 46.0106C186.867 44.5674 186.957 42.9384 187.047 41.3658C187.1 40.4633 187.493 40.4368 188.173 40.4401C191.334 40.4633 194.502 40.4401 197.659 40.46C198.309 40.445 198.952 40.3332 199.568 40.1282C200.567 39.8363 200.85 39.1794 200.73 38.2537C200.611 37.328 199.831 37.4674 199.192 37.4608C197.583 37.4608 195.971 37.3911 194.365 37.4608C191.367 37.6101 188.089 35.1184 188.762 31.0741C189.032 29.4152 189.429 27.8127 189.732 26.177C189.986 24.6507 190.764 23.2594 191.932 22.24C193.101 21.2206 194.588 20.6363 196.14 20.5866C201.074 20.424 206.013 20.57 211.003 20.57Z" fill="white"/>
<path d="M171.854 47.4439H167.524C163.067 47.4439 160.939 44.667 161.815 40.334C162.608 36.4256 163.147 32.4675 163.777 28.5293C164.14 26.2368 164.443 23.9309 164.803 21.6417C164.913 20.9781 165.249 20.5136 166.135 20.5567C167.801 20.6364 169.466 20.6331 171.132 20.5567C172.131 20.5136 172.197 20.9317 172.064 21.7379C171.288 26.4192 170.549 31.1039 169.789 35.7886C169.685 36.7003 169.508 37.6023 169.26 38.486C168.926 39.5344 169.486 39.9126 170.259 40.1448C172.161 40.6458 174.162 40.6458 176.065 40.1448C177.827 39.7268 177.504 38.0878 177.697 36.9731C178.603 31.7608 179.319 26.5188 180.075 21.2833C180.142 20.8222 180.218 20.58 180.741 20.5833C182.74 20.5833 184.739 20.5999 186.737 20.5833C187.353 20.5833 187.477 20.8222 187.38 21.3895C186.274 27.9786 185.218 34.5776 184.082 41.1634C183.336 45.4931 180.918 47.1354 176.678 47.4373C175.079 47.5401 173.457 47.4439 171.854 47.4439Z" fill="white"/>
<path d="M150.533 47.444H150.2C147.132 47.444 147.025 47.4274 147.488 44.458C148.404 38.6087 149.487 32.7861 150.433 26.9402C151.159 22.4711 151.809 17.9822 152.431 13.4999C152.535 12.7501 152.951 12.06 152.798 11.2604C152.695 10.7262 153.061 10.6367 153.504 10.6367C155.336 10.6367 157.168 10.6665 158.993 10.6367C160.213 10.6134 159.816 11.5291 159.746 12.0334C159.413 14.4853 159.013 16.9338 158.53 19.3624C158.341 20.3212 158.5 20.6464 159.53 20.6198C160.559 20.5933 161.861 20.1653 162.584 20.8056C163.39 21.5289 162.414 22.7332 162.424 23.7518C162.396 24.6712 162.285 25.5862 162.091 26.4856C161.955 27.2753 161.495 27.5805 160.619 27.5871C157.012 27.617 157.158 27.6701 156.742 31.303C156.315 35.0422 155.563 38.7481 154.96 42.4706C154.733 43.573 154.57 44.6874 154.47 45.8083C154.417 47.0359 153.964 47.5966 152.681 47.4672C151.966 47.4201 151.249 47.4123 150.533 47.444Z" fill="white"/>
<path d="M84.7963 20.5703C84.4632 22.6273 84.0435 24.5284 83.9069 26.4494C83.8303 27.4879 83.4406 27.6239 82.6079 27.5443C82.1646 27.5059 81.7188 27.5059 81.2755 27.5443C79.5101 27.6836 78.7772 28.4002 78.5241 30.1255C77.7558 35.4074 76.9785 40.687 76.1924 45.9645C76.0459 46.9399 75.6961 47.5968 74.437 47.4741C72.9434 47.3662 71.4438 47.3662 69.9502 47.4741C69.0542 47.5172 68.7444 47.2087 68.881 46.3593C69.3373 43.4828 69.777 40.6063 70.2467 37.7331C70.7763 34.4917 71.4225 31.2701 71.8555 28.0187C72.4451 23.5629 74.9966 20.5769 80.0197 20.5869L84.7963 20.5703Z" fill="white"/>
<path d="M147.052 20.5704C146.386 24.774 145.766 28.8648 145.133 32.949C144.45 37.3715 143.801 41.8008 143.068 46.22C142.955 46.9168 142.735 47.6068 141.596 47.4841C139.993 47.3525 138.383 47.3436 136.779 47.4576C135.913 47.4974 135.687 47.149 135.813 46.4025C136.436 42.753 137.086 39.0835 137.682 35.4174C138.202 32.2224 138.658 29.0174 139.141 25.8158C139.363 24.3228 139.585 22.8298 139.807 21.3368C139.9 20.7097 140.327 20.5671 140.886 20.5704C142.942 20.5704 144.987 20.5704 147.052 20.5704Z" fill="white"/>
<path d="M148.474 13.9712C148.787 16.6088 146.516 18.2445 144.334 18.2511C141.809 18.2511 139.75 16.4894 139.847 14.1537C139.95 11.6122 141.236 9.6813 144.404 9.59172C146.516 9.532 148.807 11.3999 148.474 13.9712Z" fill="white"/>
</g>
<defs>
<clipPath id="clip0_301_322">
<rect width="211" height="62.0588" fill="white"/>
</clipPath>
</defs>
</svg>
